<?xml version="1.0" encoding="UTF-8"?>
<svg xmlns="http://www.w3.org/2000/svg" xmlns:xlink="http://www.w3.org/1999/xlink" width="61pt" height="58pt" viewBox="0 0 61 58" version="1.1">
<g id="surface1">
<path style="fill:none;stroke-width:0.3985;stroke-linecap:butt;stroke-linejoin:miter;stroke:rgb(0%,0%,0%);stroke-opacity:1;stroke-miterlimit:10;" d="M -26.957864 8.759672 L -16.662019 -22.934056 L 16.662774 -22.934056 L 26.958619 8.759672 L 0.000377662 28.348536 L -26.957864 8.759672 " transform="matrix(1.0001,0,0,-1.00005,30.851185,31.939797)"/>
<path style=" stroke:none;fill-rule:nonzero;fill:rgb(0%,0%,0%);fill-opacity:1;" d="M 5.882813 23.179688 C 5.882813 22.078125 4.988281 21.1875 3.890625 21.1875 C 2.789063 21.1875 1.894531 22.078125 1.894531 23.179688 C 1.894531 24.28125 2.789063 25.171875 3.890625 25.171875 C 4.988281 25.171875 5.882813 24.28125 5.882813 23.179688 Z M 5.882813 23.179688 "/>
<path style=" stroke:none;fill-rule:nonzero;fill:rgb(0%,0%,0%);fill-opacity:1;" d="M 16.179688 54.875 C 16.179688 53.773438 15.289063 52.882813 14.1875 52.882813 C 13.085938 52.882813 12.195313 53.773438 12.195313 54.875 C 12.195313 55.976563 13.085938 56.867188 14.1875 56.867188 C 15.289063 56.867188 16.179688 55.976563 16.179688 54.875 Z M 16.179688 54.875 "/>
<path style=" stroke:none;fill-rule:nonzero;fill:rgb(0%,0%,0%);fill-opacity:1;" d="M 49.507813 54.875 C 49.507813 53.773438 48.613281 52.882813 47.515625 52.882813 C 46.414063 52.882813 45.523438 53.773438 45.523438 54.875 C 45.523438 55.976563 46.414063 56.867188 47.515625 56.867188 C 48.613281 56.867188 49.507813 55.976563 49.507813 54.875 Z M 49.507813 54.875 "/>
<path style=" stroke:none;fill-rule:nonzero;fill:rgb(0%,0%,0%);fill-opacity:1;" d="M 59.804688 23.179688 C 59.804688 22.078125 58.914063 21.1875 57.8125 21.1875 C 56.714844 21.1875 55.820313 22.078125 55.820313 23.179688 C 55.820313 24.28125 56.714844 25.171875 57.8125 25.171875 C 58.914063 25.171875 59.804688 24.28125 59.804688 23.179688 Z M 59.804688 23.179688 "/>
<path style=" stroke:none;fill-rule:nonzero;fill:rgb(0%,0%,0%);fill-opacity:1;" d="M 32.84375 3.589844 C 32.84375 2.492188 31.953125 1.597656 30.851563 1.597656 C 29.75 1.597656 28.859375 2.492188 28.859375 3.589844 C 28.859375 4.691406 29.75 5.585938 30.851563 5.585938 C 31.953125 5.585938 32.84375 4.691406 32.84375 3.589844 Z M 32.84375 3.589844 "/>
</g>
</svg>
